<svg xmlns="http://www.w3.org/2000/svg" viewBox="0 0 1440 1440"><defs><style>.cls-1{opacity:0.8;}.cls-2{fill:#010101;}.cls-3{fill:#fcfcfc;}.cls-4{fill:#efb810;}</style></defs><g id="Layer_3" data-name="Layer 3"><rect class="cls-2" x="1069.49" y="1330.54" width="49.73" height="49.73"/><rect class="cls-2" x="1069.49" y="1280.76" width="49.73" height="49.78"/><rect class="cls-2" x="1019.7" y="1330.54" width="49.78" height="49.73"/><rect class="cls-3" x="1019.7" y="1280.76" width="49.78" height="49.78"/><rect class="cls-2" x="1019.7" y="1231.03" width="49.78" height="49.73"/><rect class="cls-2" x="1019.7" y="1181.3" width="49.78" height="49.73"/><rect class="cls-2" x="1019.7" y="1131.51" width="49.78" height="49.78"/><rect class="cls-2" x="1019.7" y="1081.78" width="49.78" height="49.73"/><rect class="cls-2" x="1019.7" y="1032" width="49.78" height="49.78"/><rect class="cls-2" x="1019.7" y="982.26" width="49.78" height="49.73"/><rect class="cls-2" x="1019.7" y="733.5" width="49.78" height="49.73"/><rect class="cls-2" x="1019.7" y="683.76" width="49.78" height="49.73"/><rect class="cls-2" x="1019.7" y="633.98" width="49.78" height="49.78"/><rect class="cls-2" x="969.97" y="1330.54" width="49.73" height="49.73"/><rect class="cls-3" x="969.97" y="1280.76" width="49.73" height="49.78"/><rect class="cls-2" x="969.97" y="1231.03" width="49.73" height="49.73"/><rect class="cls-4" x="969.97" y="1181.3" width="49.73" height="49.73"/><rect class="cls-4" x="969.97" y="1131.51" width="49.73" height="49.78"/><rect class="cls-4" x="969.97" y="1081.78" width="49.73" height="49.73"/><rect class="cls-4" x="969.97" y="1032" width="49.73" height="49.78"/><rect class="cls-2" x="969.97" y="982.26" width="49.73" height="49.73"/><rect class="cls-2" x="969.97" y="932.53" width="49.73" height="49.73"/><rect class="cls-2" x="969.97" y="882.75" width="49.73" height="49.78"/><rect class="cls-2" x="969.97" y="783.23" width="49.73" height="49.78"/><rect class="cls-4" x="969.97" y="733.5" width="49.73" height="49.73"/><rect class="cls-4" x="969.97" y="683.76" width="49.73" height="49.73"/><rect class="cls-4" x="969.97" y="633.98" width="49.73" height="49.78"/><rect class="cls-2" x="969.97" y="584.25" width="49.73" height="49.73"/><rect class="cls-2" x="969.97" y="534.52" width="49.73" height="49.73"/><rect class="cls-2" x="969.97" y="335.48" width="49.73" height="49.73"/><rect class="cls-2" x="969.97" y="285.75" width="49.73" height="49.73"/><rect class="cls-2" x="969.97" y="235.97" width="49.73" height="49.78"/><rect class="cls-2" x="969.97" y="186.23" width="49.73" height="49.73"/><rect class="cls-2" x="969.97" y="136.45" width="49.73" height="49.78"/><rect class="cls-2" x="920.19" y="1330.54" width="49.78" height="49.73"/><rect class="cls-2" x="920.19" y="1280.76" width="49.78" height="49.78"/><rect class="cls-4" x="920.19" y="1231.03" width="49.78" height="49.73"/><rect class="cls-4" x="920.19" y="1181.3" width="49.78" height="49.73"/><rect class="cls-4" x="920.19" y="1131.51" width="49.78" height="49.78"/><rect class="cls-4" x="920.19" y="1081.78" width="49.78" height="49.73"/><rect class="cls-2" x="920.19" y="1032" width="49.78" height="49.78"/><rect class="cls-3" x="920.19" y="982.26" width="49.78" height="49.73"/><rect class="cls-2" x="920.19" y="932.53" width="49.78" height="49.73"/><rect class="cls-4" x="920.19" y="882.75" width="49.78" height="49.78"/><rect class="cls-2" x="920.19" y="833.01" width="49.78" height="49.73"/><rect class="cls-3" x="920.19" y="783.23" width="49.78" height="49.78"/><rect class="cls-3" x="920.19" y="733.5" width="49.78" height="49.73"/><rect class="cls-4" x="920.19" y="683.76" width="49.78" height="49.73"/><rect class="cls-4" x="920.19" y="633.98" width="49.78" height="49.78"/><rect class="cls-4" x="920.19" y="584.25" width="49.78" height="49.73"/><rect class="cls-4" x="920.19" y="534.52" width="49.78" height="49.73"/><rect class="cls-2" x="920.19" y="484.73" width="49.78" height="49.78"/><rect class="cls-2" x="920.19" y="385.22" width="49.78" height="49.78"/><rect class="cls-3" x="920.19" y="335.48" width="49.78" height="49.73"/><rect class="cls-3" x="920.19" y="285.75" width="49.78" height="49.73"/><rect class="cls-3" x="920.19" y="235.97" width="49.78" height="49.78"/><rect class="cls-3" x="920.19" y="186.23" width="49.78" height="49.73"/><rect class="cls-3" x="920.19" y="136.45" width="49.78" height="49.78"/><rect class="cls-2" x="920.19" y="86.72" width="49.78" height="49.73"/><rect class="cls-2" x="870.45" y="1280.76" width="49.73" height="49.78"/><rect class="cls-4" x="870.45" y="1231.03" width="49.73" height="49.73"/><rect class="cls-4" x="870.45" y="1181.3" width="49.73" height="49.73"/><rect class="cls-3" x="870.45" y="1131.51" width="49.73" height="49.78"/><rect class="cls-3" x="870.45" y="1081.78" width="49.73" height="49.73"/><rect class="cls-2" x="870.45" y="1032" width="49.73" height="49.78"/><rect class="cls-2" x="870.45" y="982.26" width="49.73" height="49.73"/><rect class="cls-4" x="870.45" y="932.53" width="49.73" height="49.73"/><rect class="cls-4" x="870.45" y="882.75" width="49.73" height="49.78"/><rect class="cls-2" x="870.45" y="833.01" width="49.73" height="49.73"/><rect class="cls-3" x="870.45" y="783.23" width="49.73" height="49.78"/><rect class="cls-3" x="870.45" y="733.5" width="49.73" height="49.73"/><rect class="cls-2" x="870.45" y="683.76" width="49.73" height="49.73"/><rect class="cls-2" x="870.45" y="633.98" width="49.73" height="49.78"/><rect class="cls-4" x="870.45" y="584.25" width="49.73" height="49.73"/><rect class="cls-4" x="870.45" y="534.52" width="49.73" height="49.73"/><rect class="cls-4" x="870.45" y="484.73" width="49.73" height="49.78"/><rect class="cls-2" x="870.45" y="435" width="49.73" height="49.73"/><rect class="cls-4" x="870.45" y="385.22" width="49.73" height="49.78"/><rect class="cls-4" x="870.45" y="335.48" width="49.73" height="49.73"/><rect class="cls-4" x="870.45" y="285.75" width="49.73" height="49.73"/><rect class="cls-3" x="870.45" y="235.97" width="49.73" height="49.78"/><rect class="cls-3" x="870.45" y="186.23" width="49.73" height="49.73"/><rect class="cls-3" x="870.45" y="136.45" width="49.73" height="49.78"/><rect class="cls-3" x="870.45" y="86.72" width="49.73" height="49.73"/><rect class="cls-2" x="870.45" y="36.98" width="49.73" height="49.73"/><rect class="cls-2" x="820.72" y="1280.76" width="49.73" height="49.78"/><rect class="cls-3" x="820.72" y="1231.03" width="49.73" height="49.73"/><rect class="cls-3" x="820.72" y="1181.3" width="49.73" height="49.73"/><rect class="cls-3" x="820.72" y="1131.51" width="49.73" height="49.78"/><rect class="cls-3" x="820.72" y="1081.78" width="49.73" height="49.73"/><rect class="cls-3" x="820.72" y="1032" width="49.73" height="49.78"/><rect class="cls-3" x="820.72" y="982.26" width="49.73" height="49.73"/><rect class="cls-3" x="820.72" y="932.53" width="49.73" height="49.73"/><rect class="cls-4" x="820.72" y="882.75" width="49.73" height="49.78"/><rect class="cls-2" x="820.72" y="833.01" width="49.73" height="49.73"/><rect class="cls-3" x="820.72" y="783.23" width="49.73" height="49.78"/><rect class="cls-3" x="820.72" y="733.5" width="49.73" height="49.73"/><rect class="cls-3" x="820.72" y="683.76" width="49.73" height="49.73"/><rect class="cls-4" x="820.72" y="633.98" width="49.73" height="49.78"/><rect class="cls-4" x="820.72" y="584.25" width="49.73" height="49.73"/><rect class="cls-4" x="820.72" y="534.52" width="49.73" height="49.73"/><rect class="cls-4" x="820.72" y="484.73" width="49.73" height="49.78"/><rect class="cls-4" x="820.72" y="435" width="49.73" height="49.73"/><rect class="cls-4" x="820.72" y="385.22" width="49.73" height="49.78"/><rect class="cls-2" x="820.72" y="335.48" width="49.73" height="49.73"/><rect class="cls-2" x="820.72" y="285.75" width="49.73" height="49.73"/><rect class="cls-2" x="820.72" y="235.97" width="49.73" height="49.78"/><rect class="cls-2" x="820.72" y="186.23" width="49.73" height="49.73"/><rect class="cls-2" x="820.72" y="136.45" width="49.73" height="49.78"/><rect class="cls-2" x="820.72" y="86.72" width="49.73" height="49.73"/><rect class="cls-2" x="820.72" y="36.98" width="49.73" height="49.73"/><rect class="cls-2" x="770.94" y="1280.76" width="49.78" height="49.78"/><rect class="cls-3" x="770.94" y="1231.03" width="49.78" height="49.73"/><rect class="cls-3" x="770.94" y="1181.3" width="49.78" height="49.73"/><rect class="cls-3" x="770.94" y="1131.51" width="49.78" height="49.78"/><rect class="cls-3" x="770.94" y="1081.78" width="49.78" height="49.73"/><rect class="cls-3" x="770.94" y="1032" width="49.78" height="49.78"/><rect class="cls-3" x="770.94" y="982.26" width="49.78" height="49.73"/><rect class="cls-3" x="770.94" y="932.53" width="49.78" height="49.73"/><rect class="cls-3" x="770.94" y="882.75" width="49.78" height="49.78"/><rect class="cls-2" x="770.94" y="833.01" width="49.78" height="49.73"/><rect class="cls-3" x="770.94" y="783.23" width="49.78" height="49.78"/><rect class="cls-3" x="770.94" y="733.5" width="49.78" height="49.73"/><rect class="cls-3" x="770.94" y="683.76" width="49.78" height="49.73"/><rect class="cls-4" x="770.94" y="633.98" width="49.78" height="49.78"/><rect class="cls-4" x="770.94" y="584.25" width="49.78" height="49.73"/><rect class="cls-4" x="770.94" y="534.52" width="49.78" height="49.73"/><rect class="cls-4" x="770.94" y="484.73" width="49.78" height="49.78"/><rect class="cls-4" x="770.94" y="435" width="49.78" height="49.73"/><rect class="cls-2" x="770.94" y="385.22" width="49.78" height="49.78"/><rect class="cls-2" x="721.2" y="1280.76" width="49.73" height="49.78"/><rect class="cls-3" x="721.2" y="1231.03" width="49.73" height="49.73"/><rect class="cls-3" x="721.2" y="1181.3" width="49.73" height="49.73"/><rect class="cls-3" x="721.2" y="1131.51" width="49.73" height="49.78"/><rect class="cls-3" x="721.2" y="1081.78" width="49.73" height="49.73"/><rect class="cls-3" x="721.2" y="1032" width="49.73" height="49.78"/><rect class="cls-3" x="721.2" y="982.26" width="49.73" height="49.73"/><rect class="cls-3" x="721.2" y="932.53" width="49.73" height="49.73"/><rect class="cls-3" x="721.2" y="882.75" width="49.73" height="49.78"/><rect class="cls-2" x="721.2" y="833.01" width="49.73" height="49.73"/><rect class="cls-3" x="721.2" y="783.23" width="49.73" height="49.78"/><rect class="cls-3" x="721.2" y="733.5" width="49.73" height="49.73"/><rect class="cls-2" x="721.2" y="683.76" width="49.73" height="49.73"/><rect class="cls-4" x="721.2" y="633.98" width="49.73" height="49.78"/><rect class="cls-4" x="721.2" y="584.25" width="49.73" height="49.73"/><rect class="cls-4" x="721.2" y="534.52" width="49.73" height="49.73"/><rect class="cls-4" x="721.2" y="484.73" width="49.73" height="49.78"/><rect class="cls-2" x="721.2" y="435" width="49.73" height="49.73"/><rect class="cls-2" x="671.47" y="1280.76" width="49.73" height="49.78"/><rect class="cls-3" x="671.47" y="1231.03" width="49.73" height="49.73"/><rect class="cls-3" x="671.47" y="1181.3" width="49.73" height="49.73"/><rect class="cls-3" x="671.47" y="1131.51" width="49.73" height="49.78"/><rect class="cls-3" x="671.47" y="1081.78" width="49.73" height="49.73"/><rect class="cls-3" x="671.47" y="1032" width="49.73" height="49.78"/><rect class="cls-3" x="671.47" y="982.26" width="49.73" height="49.73"/><rect class="cls-3" x="671.47" y="932.53" width="49.73" height="49.73"/><rect class="cls-3" x="671.47" y="882.75" width="49.73" height="49.78"/><rect class="cls-2" x="671.47" y="833.01" width="49.73" height="49.73"/><rect class="cls-3" x="671.47" y="783.23" width="49.73" height="49.78"/><rect class="cls-3" x="671.47" y="733.5" width="49.73" height="49.73"/><rect class="cls-3" x="671.47" y="683.76" width="49.73" height="49.73"/><rect class="cls-4" x="671.47" y="633.98" width="49.73" height="49.78"/><rect class="cls-4" x="671.47" y="584.25" width="49.73" height="49.73"/><rect class="cls-4" x="671.47" y="534.52" width="49.73" height="49.73"/><rect class="cls-4" x="671.47" y="484.73" width="49.73" height="49.78"/><rect class="cls-4" x="671.47" y="435" width="49.73" height="49.73"/><rect class="cls-2" x="671.47" y="385.22" width="49.73" height="49.78"/><rect class="cls-2" x="621.69" y="1280.76" width="49.78" height="49.78"/><rect class="cls-3" x="621.69" y="1231.03" width="49.78" height="49.73"/><rect class="cls-3" x="621.69" y="1181.3" width="49.78" height="49.73"/><rect class="cls-3" x="621.69" y="1131.51" width="49.78" height="49.78"/><rect class="cls-3" x="621.69" y="1081.78" width="49.78" height="49.73"/><rect class="cls-3" x="621.69" y="1032" width="49.78" height="49.78"/><rect class="cls-3" x="621.69" y="982.26" width="49.78" height="49.73"/><rect class="cls-3" x="621.69" y="932.53" width="49.78" height="49.73"/><rect class="cls-4" x="621.69" y="882.75" width="49.78" height="49.78"/><rect class="cls-2" x="621.69" y="833.01" width="49.78" height="49.73"/><rect class="cls-3" x="621.69" y="783.23" width="49.78" height="49.78"/><rect class="cls-3" x="621.69" y="733.5" width="49.78" height="49.73"/><rect class="cls-3" x="621.69" y="683.76" width="49.78" height="49.73"/><rect class="cls-4" x="621.69" y="633.98" width="49.78" height="49.78"/><rect class="cls-4" x="621.69" y="584.25" width="49.78" height="49.73"/><rect class="cls-4" x="621.69" y="534.52" width="49.78" height="49.73"/><rect class="cls-4" x="621.69" y="484.73" width="49.78" height="49.78"/><rect class="cls-4" x="621.69" y="435" width="49.78" height="49.73"/><rect class="cls-4" x="621.69" y="385.22" width="49.78" height="49.78"/><rect class="cls-2" x="621.69" y="335.48" width="49.78" height="49.73"/><rect class="cls-2" x="621.69" y="285.75" width="49.78" height="49.73"/><rect class="cls-2" x="621.69" y="235.97" width="49.78" height="49.78"/><rect class="cls-2" x="621.69" y="186.23" width="49.78" height="49.73"/><rect class="cls-2" x="621.69" y="136.45" width="49.78" height="49.78"/><rect class="cls-2" x="621.69" y="86.72" width="49.78" height="49.73"/><rect class="cls-2" x="621.69" y="36.98" width="49.78" height="49.73"/><rect class="cls-2" x="571.96" y="1280.76" width="49.73" height="49.78"/><rect class="cls-4" x="571.96" y="1231.03" width="49.73" height="49.73"/><rect class="cls-4" x="571.96" y="1181.3" width="49.73" height="49.73"/><rect class="cls-3" x="571.96" y="1131.51" width="49.73" height="49.78"/><rect class="cls-3" x="571.96" y="1081.78" width="49.73" height="49.73"/><rect class="cls-2" x="571.96" y="1032" width="49.73" height="49.78"/><rect class="cls-2" x="571.96" y="982.26" width="49.73" height="49.73"/><rect class="cls-4" x="571.96" y="932.53" width="49.73" height="49.73"/><rect class="cls-4" x="571.96" y="882.75" width="49.73" height="49.78"/><rect class="cls-2" x="571.96" y="833.01" width="49.73" height="49.73"/><rect class="cls-3" x="571.96" y="783.23" width="49.73" height="49.78"/><rect class="cls-3" x="571.96" y="733.5" width="49.73" height="49.73"/><rect class="cls-2" x="571.96" y="683.76" width="49.73" height="49.73"/><rect class="cls-2" x="571.96" y="633.98" width="49.73" height="49.78"/><rect class="cls-4" x="571.96" y="584.25" width="49.73" height="49.73"/><rect class="cls-4" x="571.96" y="534.52" width="49.73" height="49.73"/><rect class="cls-4" x="571.96" y="484.73" width="49.73" height="49.78"/><rect class="cls-2" x="571.96" y="435" width="49.73" height="49.73"/><rect class="cls-4" x="571.96" y="385.22" width="49.73" height="49.78"/><rect class="cls-4" x="571.96" y="335.48" width="49.73" height="49.73"/><rect class="cls-4" x="571.96" y="285.75" width="49.73" height="49.73"/><rect class="cls-3" x="571.96" y="235.97" width="49.73" height="49.78"/><rect class="cls-3" x="571.96" y="186.23" width="49.73" height="49.73"/><rect class="cls-3" x="571.96" y="136.45" width="49.73" height="49.78"/><rect class="cls-3" x="571.96" y="86.72" width="49.73" height="49.73"/><rect class="cls-2" x="571.96" y="36.98" width="49.73" height="49.73"/><rect class="cls-2" x="522.17" y="1330.54" width="49.78" height="49.73"/><rect class="cls-2" x="522.17" y="1280.76" width="49.78" height="49.78"/><rect class="cls-4" x="522.17" y="1231.03" width="49.78" height="49.73"/><rect class="cls-4" x="522.17" y="1181.3" width="49.78" height="49.73"/><rect class="cls-4" x="522.17" y="1131.51" width="49.78" height="49.78"/><rect class="cls-4" x="522.17" y="1081.78" width="49.78" height="49.73"/><rect class="cls-2" x="522.17" y="1032" width="49.78" height="49.78"/><rect class="cls-3" x="522.17" y="982.26" width="49.78" height="49.73"/><rect class="cls-2" x="522.17" y="932.53" width="49.78" height="49.73"/><rect class="cls-4" x="522.17" y="882.75" width="49.78" height="49.78"/><rect class="cls-2" x="522.17" y="833.01" width="49.78" height="49.73"/><rect class="cls-3" x="522.17" y="783.23" width="49.78" height="49.78"/><rect class="cls-3" x="522.17" y="733.5" width="49.78" height="49.73"/><rect class="cls-4" x="522.17" y="683.76" width="49.78" height="49.73"/><rect class="cls-4" x="522.17" y="633.98" width="49.78" height="49.78"/><rect class="cls-4" x="522.17" y="584.25" width="49.78" height="49.73"/><rect class="cls-4" x="522.17" y="534.52" width="49.78" height="49.73"/><rect class="cls-2" x="522.17" y="484.73" width="49.78" height="49.78"/><rect class="cls-2" x="522.17" y="385.22" width="49.78" height="49.78"/><rect class="cls-3" x="522.17" y="335.48" width="49.78" height="49.73"/><rect class="cls-3" x="522.17" y="285.75" width="49.78" height="49.73"/><rect class="cls-3" x="522.17" y="235.97" width="49.78" height="49.78"/><rect class="cls-3" x="522.17" y="186.23" width="49.78" height="49.73"/><rect class="cls-3" x="522.17" y="136.45" width="49.78" height="49.78"/><rect class="cls-2" x="522.17" y="86.72" width="49.78" height="49.73"/><rect class="cls-2" x="472.44" y="1330.54" width="49.73" height="49.73"/><rect class="cls-3" x="472.44" y="1280.76" width="49.73" height="49.78"/><rect class="cls-2" x="472.44" y="1231.03" width="49.73" height="49.73"/><rect class="cls-4" x="472.44" y="1181.3" width="49.73" height="49.73"/><rect class="cls-4" x="472.44" y="1131.51" width="49.73" height="49.78"/><rect class="cls-4" x="472.44" y="1081.78" width="49.73" height="49.73"/><rect class="cls-4" x="472.44" y="1032" width="49.73" height="49.78"/><rect class="cls-2" x="472.44" y="982.26" width="49.73" height="49.73"/><rect class="cls-2" x="472.44" y="932.53" width="49.73" height="49.73"/><rect class="cls-2" x="472.44" y="882.75" width="49.73" height="49.78"/><rect class="cls-2" x="472.44" y="783.23" width="49.73" height="49.78"/><rect class="cls-4" x="472.44" y="733.5" width="49.73" height="49.73"/><rect class="cls-4" x="472.44" y="683.76" width="49.73" height="49.73"/><rect class="cls-4" x="472.44" y="633.98" width="49.73" height="49.78"/><rect class="cls-2" x="472.44" y="584.25" width="49.73" height="49.73"/><rect class="cls-2" x="472.44" y="534.52" width="49.73" height="49.73"/><rect class="cls-2" x="472.44" y="335.48" width="49.73" height="49.73"/><rect class="cls-2" x="472.44" y="285.75" width="49.73" height="49.73"/><rect class="cls-2" x="472.44" y="235.97" width="49.73" height="49.78"/><rect class="cls-2" x="472.44" y="186.23" width="49.73" height="49.73"/><rect class="cls-2" x="472.44" y="136.45" width="49.73" height="49.78"/><rect class="cls-2" x="422.71" y="1330.54" width="49.73" height="49.73"/><rect class="cls-3" x="422.71" y="1280.76" width="49.73" height="49.78"/><rect class="cls-2" x="422.71" y="1231.03" width="49.73" height="49.73"/><rect class="cls-2" x="422.71" y="1181.3" width="49.73" height="49.73"/><rect class="cls-2" x="422.71" y="1131.51" width="49.73" height="49.78"/><rect class="cls-2" x="422.71" y="1081.78" width="49.73" height="49.73"/><rect class="cls-2" x="422.71" y="1032" width="49.73" height="49.78"/><rect class="cls-2" x="422.71" y="982.26" width="49.73" height="49.73"/><rect class="cls-2" x="422.71" y="733.5" width="49.73" height="49.73"/><rect class="cls-2" x="422.71" y="683.76" width="49.73" height="49.73"/><rect class="cls-2" x="422.71" y="633.98" width="49.73" height="49.78"/><rect class="cls-2" x="372.87" y="1330.57" width="49.78" height="49.73"/><rect class="cls-2" x="372.87" y="1280.79" width="49.78" height="49.78"/></g></svg>